<?xml version="1.0" encoding="UTF-8" standalone="no"?>
<svg
   version="1.1"
   viewBox="0 0 48.542374 48.542374"
   id="svg8"
   sodipodi:docname="Matrix_logo.svg"
   width="48.542374"
   height="48.542374"
   inkscape:version="1.2 (dc2aedaf03, 2022-05-15)"
   inkscape:export-filename="Matrix_logo.png"
   inkscape:export-xdpi="300"
   inkscape:export-ydpi="300"
   xmlns:inkscape="http://www.inkscape.org/namespaces/inkscape"
   xmlns:sodipodi="http://sodipodi.sourceforge.net/DTD/sodipodi-0.dtd"
   xmlns="http://www.w3.org/2000/svg"
   xmlns:svg="http://www.w3.org/2000/svg"
   xmlns:rdf="http://www.w3.org/1999/02/22-rdf-syntax-ns#"
   xmlns:cc="http://creativecommons.org/ns#"
   xmlns:dc="http://purl.org/dc/elements/1.1/">
  <defs
     id="defs12" />
  <sodipodi:namedview
     id="namedview10"
     pagecolor="#ffffff"
     bordercolor="#999999"
     borderopacity="1"
     inkscape:showpageshadow="0"
     inkscape:pageopacity="0"
     inkscape:pagecheckerboard="0"
     inkscape:deskcolor="#d1d1d1"
     showgrid="false"
     inkscape:zoom="7.375"
     inkscape:cx="103.18644"
     inkscape:cy="21.288136"
     inkscape:window-width="3840"
     inkscape:window-height="2054"
     inkscape:window-x="-11"
     inkscape:window-y="-11"
     inkscape:window-maximized="1"
     inkscape:current-layer="svg8" />
  <title
     id="title2">Matrix (protocol) logo</title>
  <metadata
     id="metadata14">
    <rdf:RDF>
      <cc:Work
         rdf:about="">
        <dc:title>Matrix (protocol) logo</dc:title>
      </cc:Work>
    </rdf:RDF>
  </metadata>
  <circle
     style="opacity:1;fill:#1d1d1d;fill-opacity:1;stroke-width:6.7317;stroke-linecap:round;stroke-linejoin:round;stroke-miterlimit:10;paint-order:markers fill stroke"
     id="path796"
     cx="24.271187"
     cy="24.271187"
     r="24.271187" />
  <g
     fill="#040404"
     id="g6"
     transform="translate(8.4067833,8.1355931)"
     style="fill:#ffffff">
    <path
       d="m 0.936,0.732 v 30.52 H 3.13 v 0.732 H 0.095 V 0.004 h 3.034 v 0.732 z m 8.45,9.675 v 1.544 H 9.43 c 0.3845145,-0.563728 0.893229,-1.031731 1.487,-1.368 0.58,-0.323 1.245,-0.485 1.993,-0.485 0.72,0 1.377,0.14 1.972,0.42 0.595,0.279 1.047,0.771 1.355,1.477 0.338,-0.5 0.796,-0.941 1.377,-1.323 0.58,-0.383 1.266,-0.574 2.06,-0.574 0.602,0 1.16,0.074 1.674,0.22 0.514,0.148 0.954,0.383 1.322,0.707 0.366,0.323 0.653,0.746 0.859,1.268 0.205,0.522 0.308,1.15 0.308,1.887 v 7.633 H 20.71 v -6.464 c 0,-0.383 -0.015,-0.743 -0.044,-1.082 -0.02094,-0.307213 -0.10323,-0.607116 -0.242,-0.882 -0.133151,-0.250804 -0.335956,-0.457776 -0.584,-0.596 -0.257,-0.146 -0.606,-0.22 -1.047,-0.22 -0.44,0 -0.796,0.085 -1.068,0.253 -0.272,0.17 -0.485,0.39 -0.639,0.662 -0.159137,0.287282 -0.263572,0.601605 -0.308,0.927 -0.05195,0.346916 -0.07802,0.697216 -0.078,1.048 v 6.354 h -3.128 v -6.398 c 0,-0.338 -0.007,-0.673 -0.021,-1.004 -0.01135,-0.313657 -0.07488,-0.62323 -0.188,-0.916 -0.107952,-0.276617 -0.30042,-0.512127 -0.55,-0.673 -0.258,-0.168 -0.636,-0.253 -1.135,-0.253 -0.198129,0.0083 -0.394382,0.04195 -0.584,0.1 -0.25838,0.07446 -0.498459,0.201822 -0.705,0.374 -0.228,0.184 -0.422,0.449 -0.584,0.794 -0.161,0.346 -0.242,0.798 -0.242,1.357 v 6.619 H 6.434 v -11.41 z m 20.712,20.84 V 0.727 h -2.194 v -0.732 h 3.035 v 31.98 h -3.035 v -0.732 z"
       id="path4"
       sodipodi:nodetypes="cccccccccccccscccscccsccscccsccccccscccccccsccccccccccccc"
       style="fill:#ffffff" />
  </g>
</svg>
